<svg xmlns="http://www.w3.org/2000/svg" viewBox="0 0 24 24" fill="currentColor"><path d="M20.317 4.3670a19.8062 19.8062 0 0 0-4.8851-1.5152.0741.0741 0 0 0-.0785.0371c-.211.3748-.444.8623-.607 1.249.5604-.0784 1.1125-.1923 1.6515-.3121a.077.077 0 0 1 .0776.0393c.2775.4784.5884 1.3639 1.4766 2.0428a.073.073 0 0 1 .0037.1093c-3.756 2.7368-7.8560 2.7368-11.6015 0a.073.073 0 0 1 .0042-.1096c.2881-.6789 1.4766-2.0428 1.4766-2.0428a.077.077 0 0 1 .0776-.0393c.5404.1198 1.0916.2337 1.6515.3121-.163-.3876-.396-.8501-.607-1.249-.023-.037-.09-.037-.0785-.037-1.5152.2871-2.4063.5783-4.8851 1.5152a.077.077 0 0 0-.0385.0288C1.795 6.945.788 11.75.788 16.635c0 .04.022.078.044.1222 2.908 4.191 5.7176 6.572 11.355 7.322a.0764.0764 0 0 0 .0847-.0202c.336-.454.63-.936.909-1.438a.076.076 0 0 0-.041-.106 13.107 13.107 0 0 1-1.872-.892.077.077 0 0 1-.008-.128 10.2457 10.2457 0 0 0 .372-.294.077.077 0 0 1 .08-.01c3.928 1.793 8.18 1.793 12.062 0a.077.077 0 0 1 .083.011c.12.098.246.198.373.295a.077.077 0 0 1-.006.127 12.299 12.299 0 0 1-1.873.892.077.077 0 0 0-.041.107c.28.501.575.984.909 1.438a.076.076 0 0 0 .085.02c5.638-.75 8.456-3.132 11.365-7.322a.077.077 0 0 0 .044-.122c0-4.885-1.006-9.69-4.257-13.067a.061.061 0 0 0-.031-.015ZM8.02 15.278c-1.122 0-2.04-1.029-2.04-2.313s.92-2.313 2.04-2.313c1.13 0 2.04 1.029 2.04 2.313s-.91 2.313-2.04 2.313Zm7.975 0c-1.122 0-2.04-1.029-2.04-2.313s.92-2.313 2.04-2.313c1.13 0 2.04 1.029 2.04 2.313 0 1.284-.91 2.313-2.04 2.313Z"/></svg>