<svg xmlns="http://www.w3.org/2000/svg" viewBox="0 0 24 24" fill="currentColor"><path d="M7.0301.084c-1.2768 0-2.1487.561-2.8362 1.276-.6931.723-1.0932 1.7162-1.1143 2.8562-.0035.1736-.0129 1.0408-.0129 1.0408v15.5491c0 0 .0094.8672.0129 1.0408.0212 1.1402.4212 2.1365 1.1143 2.8562.6875.715 1.5594 1.276 2.8362 1.276 1.3191 0 2.1912-.561 2.8703-1.276.6887-.723 1.091-1.7162 1.1125-2.8562.0035-.1736.0077-1.0408.0077-1.0408V9.916c0 0-.0042-.8672-.0077-1.0408-.0215-1.1402-.4238-2.1365-1.1125-2.8562-.6791-.715-1.5512-1.276-2.8703-1.276Zm0 2.068c.678 0 1.281.294 1.684.883.309.417.491 1.056.5 1.829.013.765.003.965.003 2.7v9.973c0 1.734.01 1.938-.003 2.696-.009.772-.191 1.412-.5 1.829-.403.589-1.006.883-1.684.883-.697 0-1.264-.294-1.684-.883-.309-.417-.491-1.056-.5-1.829-.013-.765-.003-.965-.003-2.7v-9.973c0-1.734-.01-1.938.003-2.696.009-.772.191-1.412.5-1.829.403-.589 1.006-.883 1.684-.883Zm11.698-1.826c-1.278 0-2.148.561-2.836 1.276-.693.723-1.093 1.7162-1.114 2.8562-.004.1736-.013 1.0408-.013 1.0408v15.5491c0 0 .009.8672.013 1.0408.021 1.1402.421 2.1365 1.114 2.8562.688.715 1.558 1.276 2.836 1.276 1.319 0 2.191-.561 2.87-1.276.689-.723 1.091-1.7162 1.112-2.8562.004-.1736.008-1.0408.008-1.0408V9.916c0 0-.004-.8672-.008-1.0408-.021-1.1402-.423-2.1365-1.112-2.8562-.679-.715-1.551-1.276-2.87-1.276Zm0 2.068c.678 0 1.281.294 1.684.883.309.417.491 1.056.501 1.829.012.765.003.965.003 2.7v9.973c0 1.734.009 1.938-.003 2.696-.01.772-.192 1.412-.501 1.829-.403.589-1.006.883-1.684.883-.697 0-1.264-.294-1.684-.883-.309-.417-.491-1.056-.5-1.829-.013-.765-.003-.965-.003-2.7v-9.973c0-1.734-.01-1.938.003-2.696.009-.772.191-1.412.5-1.829.403-.589 1.006-.883 1.684-.883Zm-5.849-3.488c0 .678.549 1.227 1.227 1.227s1.227-.549 1.227-1.227c0-.678-.549-1.227-1.227-1.227-.678 0-1.227.549-1.227 1.227Z"/></svg>